<svg xmlns="http://www.w3.org/2000/svg" width="216.072" height="235.661" viewBox="0 0 57.169 62.352" xmlns:v="https://vecta.io/nano"><style><![CDATA[.B{fill-rule:evenodd}.C{stroke-width:.265}.D{stroke-linecap:round}.E{stroke-linejoin:round}]]></style><path d="M.132 21.851h4.144v2.951L.132 21.851m56.904 0h-4.144v2.951l4.144-2.951" fill="#acf" stroke="#acf" class="C D E"/><path d="M4.276.132v24.666l24.308 17.242 24.308-17.242V.132z" fill="#e6e6e6" stroke="#e6e6e6" class="C"/><g class="E"><g fill="#b3b3b3" stroke="#b3b3b3" class="B"><g stroke-width=".241"><rect width="25.419" height="1.022" x="7.054" y="3.244" ry=".511" paint-order="markers fill stroke"/><rect width="25.419" height="1.022" x="7.054" y="6.244" ry=".511" paint-order="markers fill stroke"/></g><rect width="22.057" height="1.036" x="7.047" y="9.236" ry=".518" stroke-width=".226" paint-order="markers fill stroke"/></g><g fill="#ccc" stroke="#ccc" class="B"><g stroke-width=".303"><rect width="43.276" height=".951" x="6.95" y="18.284" ry=".475" paint-order="markers fill stroke"/><rect width="43.276" height=".951" x="6.95" y="15.284" ry=".475" paint-order="markers fill stroke"/><rect width="43.276" height=".951" x="6.95" y="21.284" ry=".475" paint-order="markers fill stroke"/><rect width="43.276" height=".951" x="6.95" y="24.284" ry=".475" paint-order="markers fill stroke"/><rect width="43.276" height=".951" x="6.95" y="27.284" ry=".475" paint-order="markers fill stroke"/></g><rect width="37.76" height=".951" x="9.708" y="30.284" ry=".475" stroke-width=".283" paint-order="markers fill stroke"/><rect width="30.006" height=".951" x="13.585" y="33.284" ry=".475" stroke-width=".252" paint-order="markers fill stroke"/><rect width="21.958" height=".951" x="17.609" y="36.284" ry=".475" stroke-width=".216" paint-order="markers fill stroke"/><rect width="14.818" height=".951" x="21.179" y="39.284" ry=".475" stroke-width=".177" paint-order="markers fill stroke"/></g><g class="C"><path d="M.132 21.851V62.22l28.452-20.179L.132 21.851m56.904 0V62.22L28.584 42.041l28.452-20.19" fill="#d5e5ff" stroke="#d5e5ff" class="D"/><path d="M.132 62.22h56.904L28.584 42.041z" fill="#acf" stroke="#acf"/></g></g></svg>